<svg class="svg-icon" style="width: 1em; height: 1em;vertical-align: middle;fill: currentColor;overflow: hidden;" viewBox="0 0 1024 1024" version="1.1" xmlns="http://www.w3.org/2000/svg"><path d="M473.42 283.38C472 240.75 491.19 198 510.45 161c8.82-16.94 18.48-33.44 28.79-49.51 6.53-10.19 11.43-23.31 24.78-25.36 7.75-1.18 18.09 0 22.42 7.5s-0.44 15.37-3.56 22.23c-6.2 13.74-12.35 27.52-18 41.48-12.29 30.12-27.37 66.39-22.88 99.66 1.37 10.18 5.29 20.2 13.87 26.4-0.02-0.02-81.87 17.89-82.45-0.02z" fill="#0DB528" /><path d="M545.05 291.34s42.82-1.24 94.21-69.76 105.63-52.81 105.63-52.81-42.82-22.84-127 35.68-72.84 86.89-72.84 86.89z" fill="#0C8E1B" /><path d="M375.9 82.28s18.56 141.32 118.48 187l-38.54 25.5S373.05 182.2 375.9 82.28z" fill="#0C961D" /><path d="M936.93 552.59c0 249.2-190.25 389.13-424.93 389.13S87.07 801.79 87.07 552.59c0-147.1 66.29-239.35 168.87-290.26a222.71 222.71 0 0 1 112.55-23c41.92 2.44 77.69 18.87 118 27.93 53 11.94 104.39-9.25 156.38-16.43 58-8 121.37 3.85 169.66 37.83 76.84 54.09 124.4 139.34 124.4 263.93z" fill="#E22A1B" /></svg>